# xmcd
#
# Track frame offsets: 
#        150
#        17613
#        32402
#        45173
#        62085
#        79321
#        95258
#        108981
#        126848
#        149866
#        167448
#        181190
#        191724
#        221921
#
# Disc length: 3933 seconds
#
# Revision: 4
# Processed by: cddbd v1.5PL3 Copyright (c) Steve Scherf et al.
# Submitted via: ExactAudioCopy v0.95a4
#
DISCID=bc0f5b0e
DTITLE=Misia - Ritual
DYEAR=2001
DGENRE=Fado
TTITLE0=Nao Guardo Saudade a Vida
TTITLE1=Xaile de Silencio
TTITLE2=Duas Luas
TTITLE3=Desespero
TTITLE4=Decisao
TTITLE5=Cor de Lua
TTITLE6=Formiga
TTITLE7=O Verso Em Que Peco
TTITLE8=Lagrima
TTITLE9=Misterio Lunar
TTITLE10=Ainda Assim
TTITLE11=A Beira Da Minha Rua
TTITLE12=Vivendo Sem Mim
TTITLE13=Duas Luas (Video Clip)
EXTD=YEAR: 2001 ID3G: 48
EXTT0=
EXTT1=
EXTT2=
EXTT3=
EXTT4=
EXTT5=
EXTT6=
EXTT7=
EXTT8=
EXTT9=
EXTT10=
EXTT11=
EXTT12=
EXTT13=
PLAYORDER=
